<?xml version="1.0" encoding="UTF-8"?>
<svg
	version="1.1"
	xmlns="http://www.w3.org/2000/svg"
	xmlns:xlink="http://www.w3.org/1999/xlink"
	preserveAspectRatio="xMidYMid meet"
	viewBox="0 0 604 215"
>
	<polygon
		className="cls-1"
		points="566.02 107.68 404.29 88.83 434.43 124.43 566.02 107.68"
		fill="#f9423a"
	></polygon>
	<path
		className="cls-2"
		d="M261.65,89.56,249,118h26c-4.25-9.45-8.41-19-12.66-28.43Z"
		fill="#fff"
	></path>
	<path
		className="cls-2"
		fill="#fff"
		d="M603.88,107.48,354.3,78.39a1.62,1.62,0,0,1,.57,1.2v58.33a1.57,1.57,0,0,1-.93,1.38l50-6.36,200-25.46Zm-169.45,17-30.14-35.6L566,107.68Z"
	></path>
	<path
		className="cls-2"
		fill="#fff"
		d="M351.66,139.48l-3.27-4.09L311.88,89.82h-.09V137a1.65,1.65,0,0,1-1.65,1.65h-3a1.71,1.71,0,0,1-1.65-1.65V78.63a1.51,1.51,0,0,1,.72-1.24,1.63,1.63,0,0,1,.93-.32h2.17l.6.75,38.49,48h.17V79.59a1.65,1.65,0,0,1,1.65-1.65h.28L283.25,70.1,193,59.59a3.62,3.62,0,0,0,.41-.74L196.52,52h23.34l3.08,6.78c.78,1.63,1.46,2.14,3,2.14h9.52a1.51,1.51,0,0,0,1.46-2.23L210.07.94A1.73,1.73,0,0,0,208.62,0h-.86a1.75,1.75,0,0,0-1.46.94L179.74,58l-8.14-.95V49.93A1.63,1.63,0,0,0,170,48.3H149.55V2.49A1.68,1.68,0,0,0,147.92.86H137.71a1.63,1.63,0,0,0-1.63,1.63V53l-10.54-1.23a15.27,15.27,0,0,0,1.88-7.36c0-7.9-7-12.1-11.49-14,4-2.14,9.95-6.95,9.95-13.56,0-9-8.32-15.95-18.45-15.95h-20a1.63,1.63,0,0,0-1.63,1.63v44.6L0,37.08,79.76,131.3h0a2.11,2.11,0,0,1,.41-1.79c.44-.52.87-1.12,1.31-1.64a5.06,5.06,0,0,1,.72-.79,1.57,1.57,0,0,1,2.31,0c.6.52,6.93,6.59,14.65,6.59,7,0,11.61-4.43,11.61-9.54,0-6-5.2-9.54-15.17-13.7-9.53-4.16-15.25-8.06-15.25-17.94,0-5.89,4.68-15.43,18.46-15.43a28.36,28.36,0,0,1,14.82,4.42,1.93,1.93,0,0,1,.52,3c-.34.52-.69,1.13-1,1.65a2,2,0,0,1-3,.78c-.61-.35-6.07-4-11.36-4-9.18,0-12,5.9-12,9.53,0,5.81,4.42,9.19,11.7,12.23,11.71,4.76,19.25,9.18,19.25,19.24,0,9-8.58,15.6-18.73,15.6a26.61,26.61,0,0,1-7.11-1,28.83,28.83,0,0,1-10.94-5.82h0L112.56,170h0l6.46-.82v43.85a1.62,1.62,0,0,0,1.55,1.63H141.5a30.16,30.16,0,0,0,30.12-30.12A29.77,29.77,0,0,0,163,163.62l5.09-.65,26.77-3.41-24.61,52.89a1.52,1.52,0,0,0,1.46,2.24h9.44a3.21,3.21,0,0,0,3.09-2.06l3.09-6.87h23.34l3.08,6.78c.78,1.63,1.46,2.15,3,2.15h9.52a1.52,1.52,0,0,0,1.46-2.24l-25.07-53.89,19.52-2.48a1.13,1.13,0,0,0,0,.18v9.35a1.62,1.62,0,0,0,1.62,1.63H236v45.82a1.7,1.7,0,0,0,1.64,1.63h10.29a1.69,1.69,0,0,0,1.63-1.63V167.24h12.26a1.63,1.63,0,0,0,1.64-1.63v-9.35a1.63,1.63,0,0,0-1.64-1.63H233.56l119-15.15h-.86ZM208.1,26.17h.09l6.52,14.15h-13Zm-108.91-13h6.7a5.82,5.82,0,0,1,6,5.84,6.11,6.11,0,0,1-6,6.17h-6.7ZM107,48.64H99.19V36.38h7c3.34,0,7,2.57,7,6A6.22,6.22,0,0,1,107,48.64ZM140.64,202h-8.23V167.51l2.07-.27h6.16c9.7,0,16.74,7.64,16.74,17.33S150.34,202,140.64,202Zm64.84-7.9h-13l6.43-14.15H199ZM232.41,79.33l-26.35,58.33a1.56,1.56,0,0,1-1.48,1h-.86a1.55,1.55,0,0,1-1.47-1l-21.6-48.13L158.9,137.66a1.56,1.56,0,0,1-1.47,1h-.87a1.56,1.56,0,0,1-1.47-1L128.91,79.33a1.53,1.53,0,0,1,1.48-2.26h3.46a1.61,1.61,0,0,1,1.48,1l6.41,14.3,2.34,5.37c4.25,9.45,8.41,19,12.66,28.43h.69L170.08,97.7l2.43-5.37,4.66-10.54L178.84,78a1.58,1.58,0,0,1,1.47-1h.7a1.58,1.58,0,0,1,1.47,1l1.68,3.73,4.74,10.57,2.34,5.37c4.24,9.45,8.4,19,12.65,28.43h.69L217.24,97.7l2.43-5.37L226,78a1.58,1.58,0,0,1,1.47-1h3.47A1.54,1.54,0,0,1,232.41,79.33Zm56.28,59.29h-3.46a1.62,1.62,0,0,1-1.48-1l-6.41-14.3H246.57l-6.33,14.3a1.6,1.6,0,0,1-1.48,1H235.3a1.54,1.54,0,0,1-1.48-2.26L260.18,78a1.55,1.55,0,0,1,1.47-1h.87A1.56,1.56,0,0,1,264,78l26.18,58.33A1.54,1.54,0,0,1,288.69,138.62Z"
	></path>
	<path
		className="cls-2"
		fill="#fff"
		d="M268.47,61.77a29.44,29.44,0,0,0,20.85-8.32,1.72,1.72,0,0,0,.09-2.32L282.71,44a1.68,1.68,0,0,0-2.22-.08A18.21,18.21,0,0,1,269,48c-9.7,0-16.91-7.89-16.91-17.41S259.21,13,268.9,13a17.58,17.58,0,0,1,11.59,4.38,1.5,1.5,0,0,0,2.14,0l6.69-6.95a1.59,1.59,0,0,0-.08-2.4,28.84,28.84,0,0,0-20.77-8,30.89,30.89,0,1,0,0,61.77Z"
	></path>
	<path
		className="cls-2"
		fill="#fff"
		d="M301.45,60.91h10a2.09,2.09,0,0,0,2.06-2.06V33.29l19.81,26.94a2.42,2.42,0,0,0,1.55.6h11.84a2,2,0,0,0,1.63-3.18L326.5,29.17,346.58,4A2,2,0,0,0,345,.86H334.22a2.53,2.53,0,0,0-1.62.85L313.55,25.48V2.92A2.09,2.09,0,0,0,311.49.86h-10a2,2,0,0,0-2.06,2.06V58.85A2,2,0,0,0,301.45,60.91Z"
	></path>
	<path
		className="cls-2"
		fill="#fff"
		d="M288.51,154.72a1.73,1.73,0,0,0-1.45-.95h-.86a1.74,1.74,0,0,0-1.46.95l-26.86,57.73a1.52,1.52,0,0,0,1.46,2.24h9.44a3.21,3.21,0,0,0,3.09-2.06l3.09-6.87H298.3l3.08,6.78c.78,1.63,1.46,2.15,3,2.15h9.52a1.52,1.52,0,0,0,1.46-2.24Zm-8.4,39.37,6.43-14.15h.09l6.51,14.15Z"
	></path>
</svg>
