<?xml version="1.0" encoding="UTF-8"?>
<svg
	version="1.1"
	xmlns="http://www.w3.org/2000/svg"
	xmlns:xlink="http://www.w3.org/1999/xlink"
	viewBox="0 0 544 544"
	preserveAspectRatio="xMidYMid meet"
>
	<g>
		<path
			d="m272.249,1c-71.941,0 -140.93,28.578 -191.8,79.449c-50.871,50.867 -79.449,119.86 -79.449,191.8s28.578,140.93 79.449,191.8c50.867,50.871 119.86,79.449 191.8,79.449s140.93,-28.578 191.8,-79.449c50.871,-50.867 79.449,-119.86 79.449,-191.8c-0.08203,-71.914 -28.684,-140.86 -79.535,-191.71c-50.852,-50.852 -119.8,-79.453 -191.71,-79.535l-0.004,-0.004zm0,455c-48.734,0 -95.473,-19.359 -129.93,-53.82c-34.461,-34.457 -53.82,-81.195 -53.82,-129.93s19.359,-95.473 53.82,-129.93c34.457,-34.461 81.195,-53.82 129.93,-53.82s95.473,19.359 129.93,53.82c34.461,34.457 53.82,81.195 53.82,129.93c-0.05469,48.719 -19.43,95.422 -53.879,129.87c-34.449,34.449 -81.152,53.824 -129.87,53.879l-0.001,0.001zm189.57,-251.27l47.199,-23.625l-0.00391,0c22.23,57.605 22.652,121.34 1.1836,179.23l-47.348,-23.676c14.543,-42.844 14.18,-89.348 -1.0312,-131.96l0.00051,0.031zm40.336,-39.734l-46.98,23.492l0,0.00391c-20.188,-43.824 -55.363,-78.996 -99.188,-99.184l23.492,-46.98l0,0.0039c53.961,25.312 97.359,68.707 122.68,122.66l-0.004,0.00419zm-138.8,-129.54l-23.625,47.25c-43.652,-15.574 -91.352,-15.574 -135,0l-23.625,-47.207l0,0.00391c58.629,-22.645 123.59,-22.645 182.22,0l0.03,-0.04691zm-198.34,6.8672l23.492,46.98c-42.828,19.715 -77.434,53.754 -97.852,96.25l-46.961,-23.492c25.531,-52.629 68.359,-94.898 121.32,-119.73l0.001,-0.008zm-128.35,135.79l47.129,23.574c-16.668,44.453 -17.059,93.375 -1.1016,138.09l-47.199,23.625c-23.055,-59.68 -22.637,-125.88 1.1719,-185.26l-0.0003,-0.029zm5.6953,201.39l47.016,-23.492c19.941,43.293 54.516,78.164 97.641,98.469l-23.492,47.016c-53.277,-25.434 -96.094,-68.543 -121.16,-121.99l-0.005,-0.003zm137.25,128.89l23.574,-47.152c44.598,16.281 93.516,16.281 138.12,0l23.574,47.137c-59.531,23.445 -125.73,23.445 -185.27,0l0.002,0.015zm201.36,-6.9023l-23.492,-46.988c44.145,-20.766 79.309,-56.781 99.012,-101.41l46.98,23.492c-24.848,54.762 -68.23,98.996 -122.5,124.91l0,-0.004z"
			id="svg_14"
		/>
		<path
			d="m272.249,106c-44.094,0 -86.379,17.516 -117.55,48.695c-31.18,31.176 -48.695,73.461 -48.695,117.55s17.516,86.379 48.695,117.55c31.176,31.18 73.461,48.695 117.55,48.695s86.379,-17.516 117.55,-48.695c31.18,-31.176 48.695,-73.461 48.695,-117.55c-0.04687,-44.078 -17.578,-86.336 -48.746,-117.5c-31.168,-31.168 -73.426,-48.699 -117.5,-48.746l0.001,0.001zm0,315c-39.449,0 -77.285,-15.672 -105.18,-43.566c-27.895,-27.898 -43.566,-65.734 -43.566,-105.18s15.672,-77.285 43.566,-105.18c27.898,-27.895 65.734,-43.566 105.18,-43.566s77.285,15.672 105.18,43.566c27.895,27.898 43.566,65.734 43.566,105.18c-0.04297,39.438 -15.73,77.246 -43.617,105.13c-27.887,27.887 -65.695,43.574 -105.13,43.617l0.001,-0.001z"
			id="svg_15"
		/>
		<path
			d="m280.999,193.5l0,-17.5l-17.5,0l0,17.5c-15.629,0 -30.074,8.3398 -37.887,21.875c-7.8164,13.535 -7.8164,30.215 0,43.75c7.8125,13.535 22.258,21.875 37.887,21.875l0,52.5c-6.9609,0 -13.641,-2.7656 -18.562,-7.6875s-7.6875,-11.602 -7.6875,-18.562l0,-8.75l-17.5,0l0,8.75c0,11.602 4.6094,22.73 12.812,30.938c8.207,8.2031 19.336,12.812 30.938,12.812l0,17.5l17.5,0l0,-17.5c15.629,0 30.074,-8.3398 37.887,-21.875c7.8164,-13.535 7.8164,-30.215 0,-43.75c-7.8125,-13.535 -22.258,-21.875 -37.887,-21.875l0,-52.5c6.9609,0 13.641,2.7656 18.562,7.6875s7.6875,11.602 7.6875,18.562l0,8.75l17.5,0l0,-8.75c0,-11.602 -4.6094,-22.73 -12.812,-30.938c-8.207,-8.2031 -19.336,-12.812 -30.938,-12.812zm0,87.5c9.3789,0 18.043,5.0039 22.734,13.125c4.6875,8.1211 4.6875,18.129 0,26.25c-4.6914,8.1211 -13.355,13.125 -22.734,13.125l0,-52.5zm-17.5,-17.5c-9.3789,0 -18.043,-5.0039 -22.734,-13.125c-4.6875,-8.1211 -4.6875,-18.129 0,-26.25c4.6914,-8.1211 13.355,-13.125 22.734,-13.125l0,52.5z"
			id="svg_16"
		/>
		<path
			d="m272.249,149.75c-32.488,0 -63.648,12.906 -86.621,35.879s-35.879,54.133 -35.879,86.621s12.906,63.648 35.879,86.621s54.133,35.879 86.621,35.879s63.648,-12.906 86.621,-35.879s35.879,-54.133 35.879,-86.621c-0.03516,-32.477 -12.953,-63.617 -35.918,-86.582c-22.965,-22.965 -54.105,-35.883 -86.582,-35.918zm0,227.5c-27.848,0 -54.555,-11.062 -74.246,-30.754s-30.754,-46.398 -30.754,-74.246s11.062,-54.555 30.754,-74.246s46.398,-30.754 74.246,-30.754s54.555,11.062 74.246,30.754s30.754,46.398 30.754,74.246c-0.03125,27.84 -11.102,54.527 -30.785,74.215c-19.688,19.684 -46.375,30.754 -74.215,30.785z"
			id="svg_17"
		/>
		<path
			d="m272.249,62.25c4.6406,0 9.0938,-1.8438 12.375,-5.125s5.125,-7.7344 5.125,-12.375s-1.8438,-9.0938 -5.125,-12.375s-7.7344,-5.125 -12.375,-5.125s-9.0938,1.8438 -12.375,5.125s-5.125,7.7344 -5.125,12.375s1.8438,9.0938 5.125,12.375s7.7344,5.125 12.375,5.125z"
			id="svg_18"
		/>
		<path
			d="m272.249,482.25c-4.6406,0 -9.0938,1.8438 -12.375,5.125s-5.125,7.7344 -5.125,12.375s1.8438,9.0938 5.125,12.375s7.7344,5.125 12.375,5.125s9.0938,-1.8438 12.375,-5.125s5.125,-7.7344 5.125,-12.375s-1.8438,-9.0938 -5.125,-12.375s-7.7344,-5.125 -12.375,-5.125z"
			id="svg_19"
		/>
		<path
			d="m499.749,289.75c4.6406,0 9.0938,-1.8438 12.375,-5.125s5.125,-7.7344 5.125,-12.375s-1.8438,-9.0938 -5.125,-12.375s-7.7344,-5.125 -12.375,-5.125s-9.0938,1.8438 -12.375,5.125s-5.125,7.7344 -5.125,12.375s1.8438,9.0938 5.125,12.375s7.7344,5.125 12.375,5.125z"
			id="svg_20"
		/>
		<path
			d="m44.749,289.75c4.6406,0 9.0938,-1.8438 12.375,-5.125s5.125,-7.7344 5.125,-12.375s-1.8438,-9.0938 -5.125,-12.375s-7.7344,-5.125 -12.375,-5.125s-9.0938,1.8438 -12.375,5.125s-5.125,7.7344 -5.125,12.375s1.8438,9.0938 5.125,12.375s7.7344,5.125 12.375,5.125z"
			id="svg_21"
		/>
		<path
			d="m420.729,420.74c-3.2812,3.2812 -5.125,7.7305 -5.125,12.371s1.8438,9.0898 5.125,12.375c3.2812,3.2773 7.7305,5.1211 12.371,5.1211c4.6406,0 9.0938,-1.8438 12.375,-5.125s5.125,-7.7344 5.125,-12.375s-1.8438,-9.0898 -5.125,-12.375c-3.2812,-3.2812 -7.7344,-5.125 -12.375,-5.125c-4.6406,0 -9.0898,1.8438 -12.371,5.125l0,0.0079z"
			id="svg_22"
		/>
		<path
			d="m98.999,123.75c3.2812,3.2812 7.7344,5.125 12.375,5.1211c4.6406,0 9.0898,-1.8438 12.371,-5.125s5.125,-7.7305 5.125,-12.375c0,-4.6406 -1.8438,-9.0898 -5.125,-12.371s-7.7305,-5.125 -12.371,-5.1289c-4.6406,0 -9.0938,1.8438 -12.375,5.125c-3.293,3.2773 -5.1445,7.7305 -5.1445,12.375c0,4.6484 1.8516,9.1016 5.1445,12.379l0,-0.0002z"
			id="svg_23"
		/>
		<path
			d="m433.109,128.86c4.6406,0.01172 9.0938,-1.8281 12.375,-5.1094c3.8477,-3.8438 5.6875,-9.2617 4.9805,-14.656c-0.70703,-5.3945 -3.8789,-10.152 -8.5898,-12.875s-10.418,-3.1016 -15.445,-1.0234c-5.0273,2.0781 -8.8047,6.3789 -10.215,11.633c-1.4102,5.2539 -0.30078,10.863 3.0078,15.184s8.4375,6.8516 13.879,6.8555l0.0075,-0.0087z"
			id="svg_24"
		/>
		<path
			d="m98.999,420.74c-4.4219,4.418 -6.1523,10.863 -4.5352,16.906c1.6172,6.0391 6.332,10.758 12.371,12.379c6.0391,1.6211 12.484,-0.10156 16.91,-4.5234c4.4219,-4.4219 6.1523,-10.863 4.5352,-16.906c-1.6172,-6.0391 -6.332,-10.762 -12.371,-12.379c-6.043,-1.6211 -12.488,0.10156 -16.91,4.5234z"
			id="svg_25"
		/>
	</g>
</svg>
