<?xml version="1.0" encoding="UTF-8"?>
<svg
	version="1.1"
	xmlns="http://www.w3.org/2000/svg"
	xmlns:xlink="http://www.w3.org/1999/xlink"
	viewBox="0 0 398 434"
	preserveAspectRatio="xMidYMid meet"
>
	<path
		d="m145.727,1c-17.953,30.973 -35.773,62.02 -53.641,93.035l36.957,64.117l-74.461,0l-53.582,93.09l53.582,93.078l104.91,0l-24.16,88.789l128.05,0l-24.172,-88.789l104.93,0l53.594,-93.09l-53.594,-93.035l-74.418,0l36.914,-64.082l-53.625,-93.09l-107.27,0l-0.014,-0.023zm16.129,28.023l74.953,0l37.504,65.09l-37.449,65l-74.953,0l-37.504,-65.078l37.449,-65.012zm-91.086,157.13l74.945,0l37.516,65.09l-37.504,65.078l-74.953,0l-37.461,-65.078l37.457,-65.09zm182.19,0.05469l74.988,0l37.473,65.047l-37.473,65.078l-74.945,0l-37.527,-65.109l37.484,-65.016zm-74.387,0.91797l41.531,0l-20.758,36.008l-20.773,-36.008zm20.781,117.41l27.387,100.58l-54.766,0l27.379,-100.58z"
	/>
</svg>
